<svg xmlns="http://www.w3.org/2000/svg"  viewBox="0 0 64 64" width="64px" height="64px"><linearGradient id="2fqj2GYWeuy86S2KUVXkAa" x1="32" x2="32" y1="2.543" y2="60.177" gradientUnits="userSpaceOnUse"><stop offset="0" stop-color="#1a6dff"/><stop offset="1" stop-color="#c822ff"/></linearGradient><path fill="url(#2fqj2GYWeuy86S2KUVXkAa)" d="M50.46,15.14c-0.23-0.25-0.46-0.49-0.7-0.73l-0.01-0.01C45.23,9.83,38.95,7,32,7	c-3.14,0-6.14,0.58-8.91,1.64c-0.41,0.15-0.81,0.32-1.21,0.5C13.99,12.63,8.24,20.1,7.19,29c-0.06,0.44-0.11,0.89-0.13,1.33	C7.02,30.88,7,31.44,7,32c0,7.01,2.88,13.34,7.53,17.88c0.48,0.48,0.98,0.93,1.5,1.36C20.36,54.84,25.93,57,32,57	c3.55,0,6.93-0.74,9.99-2.08c0.66-0.28,1.3-0.6,1.93-0.94c7.05-3.83,12.06-10.96,12.94-19.32v-0.02c0.04-0.33,0.07-0.67,0.08-1	v-0.01C56.98,33.09,57,32.55,57,32C57,25.51,54.52,19.58,50.46,15.14z M32,9c6.16,0,11.77,2.44,15.9,6.4	c-2.95,4.11-7.46,7.32-13.44,9.58c-3.02-5.87-6.44-11.13-9.81-14.77C26.96,9.42,29.43,9,32,9z M22.64,11	c3.24,3.34,6.78,8.6,9.93,14.65c-6.29,2.06-14.11,3.18-23.36,3.33C10.26,20.94,15.49,14.19,22.64,11z M9,32	c0-0.34,0.01-0.68,0.03-1.02c9.65-0.13,17.87-1.32,24.45-3.54c0.86,1.73,1.69,3.51,2.46,5.32c-7.93,2.08-14.75,7.27-20.29,15.4	C11.54,44,9,38.29,9,32z M32,55c-5.66,0-10.85-2.05-14.86-5.47c5.38-7.97,11.95-12.98,19.58-14.9c2.49,6.15,4.37,12.54,5.06,18.18	C38.81,54.22,35.5,55,32,55z M43.66,51.82c-0.76-5.34-2.58-11.52-5-17.61c4.91-0.9,10.32-0.59,16.12,0.9	C53.82,42.22,49.59,48.31,43.66,51.82z M37.87,32.32c-0.78-1.88-1.63-3.74-2.52-5.55c6.13-2.33,10.81-5.66,13.95-9.9	C52.85,20.92,55,26.21,55,32c0,0.37-0.01,0.74-0.03,1.11C48.83,31.56,43.09,31.3,37.87,32.32z"/><linearGradient id="2fqj2GYWeuy86S2KUVXkAb" x1="36.7" x2="36.7" y1="7.043" y2="24.685" gradientUnits="userSpaceOnUse"><stop offset="0" stop-color="#6dc7ff"/><stop offset="1" stop-color="#e6abff"/></linearGradient><path fill="url(#2fqj2GYWeuy86S2KUVXkAb)" d="M35.39,22.449c-2.315-4.313-4.742-8.083-7.148-11.113C29.471,11.113,30.728,11,32,11	c4.825,0,9.434,1.639,13.158,4.648C42.771,18.402,39.497,20.682,35.39,22.449z"/><linearGradient id="2fqj2GYWeuy86S2KUVXkAc" x1="20.643" x2="20.643" y1="11.739" y2="28.327" gradientUnits="userSpaceOnUse"><stop offset="0" stop-color="#6dc7ff"/><stop offset="1" stop-color="#e6abff"/></linearGradient><path fill="url(#2fqj2GYWeuy86S2KUVXkAc)" d="M11.635,26.916c1.435-5.729,5.293-10.678,10.545-13.468c2.427,2.746,5.014,6.553,7.471,10.99	C24.559,25.834,18.52,26.665,11.635,26.916z"/><linearGradient id="2fqj2GYWeuy86S2KUVXkAd" x1="22.109" x2="22.109" y1="30.326" y2="40.602" gradientUnits="userSpaceOnUse"><stop offset="0" stop-color="#6dc7ff"/><stop offset="1" stop-color="#e6abff"/></linearGradient><path fill="url(#2fqj2GYWeuy86S2KUVXkAd)" d="M15.485,44.958c-2.715-3.445-4.271-7.616-4.465-12.019c8.232-0.238,15.42-1.268,21.419-3.068	c0.261,0.547,0.515,1.09,0.759,1.627C26.435,33.8,20.493,38.315,15.485,44.958z"/><linearGradient id="2fqj2GYWeuy86S2KUVXkAe" x1="29.73" x2="29.73" y1="35.511" y2="54.381" gradientUnits="userSpaceOnUse"><stop offset="0" stop-color="#6dc7ff"/><stop offset="1" stop-color="#e6abff"/></linearGradient><path fill="url(#2fqj2GYWeuy86S2KUVXkAe)" d="M32,53c-4.362,0-8.606-1.365-12.131-3.875c4.468-6.097,9.722-10.148,15.656-12.071	c1.996,5.199,3.384,10.162,4.064,14.527C37.183,52.523,34.637,53,32,53z"/><linearGradient id="2fqj2GYWeuy86S2KUVXkAf" x1="46.954" x2="46.954" y1="33.75" y2="48.041" gradientUnits="userSpaceOnUse"><stop offset="0" stop-color="#6dc7ff"/><stop offset="1" stop-color="#e6abff"/></linearGradient><path fill="url(#2fqj2GYWeuy86S2KUVXkAf)" d="M45.097,48.396c-0.779-3.861-2.022-8.118-3.666-12.552c0.96-0.092,1.942-0.138,2.937-0.138	c2.571,0,5.292,0.307,8.109,0.914C51.43,41.233,48.797,45.417,45.097,48.396z"/><linearGradient id="2fqj2GYWeuy86S2KUVXkAg" x1="45.512" x2="45.512" y1="18.685" y2="32.534" gradientUnits="userSpaceOnUse"><stop offset="0" stop-color="#6dc7ff"/><stop offset="1" stop-color="#e6abff"/></linearGradient><path fill="url(#2fqj2GYWeuy86S2KUVXkAg)" d="M52.953,30.603c-2.96-0.592-5.849-0.892-8.614-0.892c-1.786,0-3.544,0.125-5.247,0.373	c-0.326-0.75-0.667-1.505-1.021-2.265c4.573-1.999,8.322-4.598,11.19-7.755C51.421,23.177,52.7,26.818,52.953,30.603z"/></svg>